<svg xmlns="http://www.w3.org/2000/svg" viewBox="0 0 24 17.33"><defs><style>.cls-1{fill:#4285fd;}</style></defs><g id="Livello_2" data-name="Livello 2"><g id="Livello_1-2" data-name="Livello 1"><path class="cls-1" d="M10.8,14.44a.72.72,0,1,1-.71.72.72.72,0,0,1,.71-.72m11-4.35a.71.71,0,1,1,.71-.71.73.73,0,0,1-.71.71m0-2.88a2.18,2.18,0,0,0-2.18,2.17,2.3,2.3,0,0,0,.11.68L12.6,13.88a2.16,2.16,0,0,0-1.8-.94,2.25,2.25,0,0,0-2,1.2L2.4,10.77A2.79,2.79,0,0,1,1.28,8.26a1.34,1.34,0,0,1,.49-1.09.65.65,0,0,1,.63,0l0,0L10,11.18a1.16,1.16,0,0,0,1.2-.07l11.55-6a.54.54,0,0,0,.37-.49.58.58,0,0,0-.34-.49L20.1,2.9C18,1.92,15.6.8,14.55.23a1.79,1.79,0,0,0-1.76,0l-.26.12C7.77,2.75,1.47,5.86,1.09,6.08A2.53,2.53,0,0,0,0,8.22a4.08,4.08,0,0,0,1.84,3.71l6.83,3.53A2.17,2.17,0,0,0,13,15.19l7.5-4A2.19,2.19,0,0,0,24,9.42a2.18,2.18,0,0,0-2.17-2.21"/></g></g></svg>